<svg id="svg" version="1.1" xmlns="http://www.w3.org/2000/svg" xmlns:xlink="http://www.w3.org/1999/xlink" width="400" height="400" viewBox="0, 0, 400,400"><g id="svgg"><path id="path0" d="M183.203 96.102 C 131.114 96.297,125.361 96.380,123.242 96.967 C 105.380 101.914,92.343 115.836,88.692 133.861 C 87.572 139.390,87.388 236.440,88.486 242.159 C 92.145 261.202,105.959 275.512,124.512 279.478 L 125.781 279.750 125.781 299.583 L 125.781 319.416 126.669 320.734 C 128.523 323.484,131.662 324.543,134.625 323.417 C 135.984 322.900,135.388 323.414,161.395 300.309 L 183.141 280.989 226.241 280.726 C 273.363 280.438,272.701 280.471,279.952 278.086 C 295.651 272.924,306.759 261.087,311.441 244.531 C 312.399 241.144,313.025 143.794,312.139 136.133 C 310.137 118.846,297.434 103.600,280.215 97.819 C 274.466 95.890,272.144 95.697,255.859 95.795 C 247.588 95.845,214.893 95.983,183.203 96.102 M276.953 107.702 C 289.905 112.090,299.675 123.299,301.563 135.938 C 302.048 139.188,301.957 239.676,301.467 241.362 C 301.318 241.876,300.910 243.279,300.561 244.481 C 297.516 254.955,288.638 263.983,277.734 267.694 C 271.135 269.940,272.607 269.875,225.781 269.973 C 202.041 270.022,181.788 270.136,180.775 270.226 C 179.023 270.381,178.579 270.703,171.790 276.750 C 167.862 280.248,158.320 288.739,150.586 295.618 L 136.523 308.126 136.328 291.661 C 136.155 277.038,136.058 275.064,135.462 274.023 C 133.731 271.002,132.733 270.416,127.148 269.150 C 114.005 266.168,104.217 257.615,100.092 245.508 C 98.001 239.369,98.000 239.358,98.129 186.328 L 98.249 137.305 99.133 134.180 C 102.866 120.991,113.464 110.401,125.977 107.355 L 129.492 106.499 199.023 106.277 C 271.110 106.047,272.119 106.065,276.953 107.702 M192.893 123.414 C 179.198 126.367,168.595 136.807,165.801 150.092 C 165.419 151.910,165.234 155.236,165.234 160.326 L 165.234 167.867 162.988 168.309 C 156.311 169.623,151.038 174.402,149.356 180.664 C 148.525 183.761,148.584 236.793,149.422 240.010 C 151.128 246.553,156.644 251.915,163.508 253.703 C 165.511 254.225,170.479 254.301,200.781 254.274 L 235.742 254.243 238.320 253.353 C 244.756 251.132,249.331 246.294,250.980 239.964 C 251.866 236.560,251.846 184.064,250.956 180.648 C 249.344 174.459,244.090 169.625,237.582 168.344 L 235.156 167.867 235.156 159.973 C 235.156 150.784,234.694 148.297,231.901 142.440 C 225.039 128.053,208.588 120.030,192.893 123.414 M204.909 134.801 C 216.935 137.014,223.413 145.838,223.741 160.452 L 223.918 168.365 200.205 168.265 L 176.492 168.164 176.544 161.523 C 176.601 154.320,176.724 153.055,177.623 150.391 C 181.434 139.107,192.851 132.583,204.909 134.801 M236.749 180.184 C 237.879 180.755,238.774 181.593,239.347 182.617 L 240.222 184.180 240.228 210.657 C 240.235 239.450,240.293 238.648,238.032 240.790 C 235.574 243.117,237.872 242.990,200.041 242.877 L 165.301 242.773 163.643 241.602 C 160.181 239.156,160.367 240.823,160.234 211.133 C 160.111 183.626,160.150 182.907,161.870 181.291 C 163.998 179.292,163.313 179.327,200.422 179.320 L 235.024 179.313 236.749 180.184 M195.242 194.238 C 188.418 197.648,187.032 207.054,192.548 212.516 C 193.407 213.366,194.249 214.062,194.418 214.062 C 194.588 214.062,194.727 217.397,194.727 221.473 C 194.727 230.708,194.662 230.592,199.913 230.797 C 202.931 230.915,203.443 230.833,204.395 230.085 L 205.469 229.240 205.474 221.749 L 205.478 214.258 206.811 213.395 C 218.108 206.079,207.314 188.205,195.242 194.238 " stroke="none" fill="#065b93" fill-rule="evenodd"></path><path id="path1" d="M131.738 63.572 C 133.403 63.645,136.128 63.645,137.793 63.572 C 139.458 63.498,138.096 63.438,134.766 63.438 C 131.436 63.438,130.073 63.498,131.738 63.572 M144.434 63.557 C 144.917 63.650,145.708 63.650,146.191 63.557 C 146.675 63.464,146.279 63.388,145.313 63.388 C 144.346 63.388,143.950 63.464,144.434 63.557 M148.150 63.562 C 148.744 63.651,149.623 63.649,150.103 63.556 C 150.583 63.464,150.098 63.390,149.023 63.393 C 147.949 63.396,147.556 63.472,148.150 63.562 M244.837 63.570 C 245.972 63.649,247.730 63.648,248.744 63.568 C 249.757 63.488,248.828 63.423,246.680 63.424 C 244.531 63.425,243.702 63.491,244.837 63.570 M129.199 70.213 C 131.401 70.283,135.005 70.283,137.207 70.213 C 139.409 70.144,137.607 70.087,133.203 70.087 C 128.799 70.087,126.997 70.144,129.199 70.213 M142.472 70.204 C 143.165 70.290,144.396 70.292,145.206 70.207 C 146.017 70.122,145.449 70.052,143.945 70.050 C 142.441 70.048,141.778 70.118,142.472 70.204 M147.563 70.198 C 148.049 70.292,148.752 70.288,149.126 70.190 C 149.499 70.092,149.102 70.016,148.242 70.020 C 147.383 70.025,147.077 70.105,147.563 70.198 M150.688 70.198 C 151.174 70.292,151.877 70.288,152.251 70.190 C 152.624 70.092,152.227 70.016,151.367 70.020 C 150.508 70.025,150.202 70.105,150.688 70.198 M241.900 70.202 C 242.494 70.292,243.373 70.290,243.853 70.197 C 244.333 70.104,243.848 70.031,242.773 70.034 C 241.699 70.037,241.306 70.112,241.900 70.202 M248.150 70.202 C 248.744 70.292,249.623 70.290,250.103 70.197 C 250.583 70.104,250.098 70.031,249.023 70.034 C 247.949 70.037,247.556 70.112,248.150 70.202 M252.237 70.204 C 252.931 70.290,254.161 70.292,254.972 70.207 C 255.782 70.122,255.215 70.052,253.711 70.050 C 252.207 70.048,251.544 70.118,252.237 70.204 M166.797 71.997 C 166.797 72.064,167.368 72.636,168.066 73.267 L 169.336 74.414 168.189 73.145 C 167.119 71.961,166.797 71.695,166.797 71.997 M231.356 79.297 C 231.356 80.264,231.433 80.659,231.526 80.176 C 231.619 79.692,231.619 78.901,231.526 78.418 C 231.433 77.935,231.356 78.330,231.356 79.297 M231.356 85.156 C 231.356 86.123,231.433 86.519,231.526 86.035 C 231.619 85.552,231.619 84.761,231.526 84.277 C 231.433 83.794,231.356 84.189,231.356 85.156 M231.381 92.578 C 231.381 94.189,231.450 94.849,231.535 94.043 C 231.619 93.237,231.619 91.919,231.535 91.113 C 231.450 90.308,231.381 90.967,231.381 92.578 M85.254 90.504 C 85.630 90.602,86.245 90.602,86.621 90.504 C 86.997 90.405,86.689 90.325,85.938 90.325 C 85.186 90.325,84.878 90.405,85.254 90.504 M224.721 93.555 C 224.724 94.629,224.800 95.022,224.890 94.428 C 224.979 93.834,224.977 92.956,224.884 92.475 C 224.792 91.995,224.718 92.480,224.721 93.555 M226.270 95.990 C 227.290 96.071,228.960 96.071,229.980 95.990 C 231.001 95.910,230.166 95.844,228.125 95.844 C 226.084 95.844,225.249 95.910,226.270 95.990 M234.487 95.992 C 235.730 96.070,237.664 96.069,238.784 95.991 C 239.904 95.912,238.887 95.848,236.523 95.849 C 234.160 95.850,233.244 95.914,234.487 95.992 M145.046 106.543 C 149.949 106.605,157.859 106.605,162.624 106.543 C 167.390 106.480,163.379 106.430,153.711 106.430 C 144.043 106.430,140.144 106.481,145.046 106.543 M85.650 110.046 C 86.244 110.136,87.123 110.133,87.603 110.041 C 88.083 109.948,87.598 109.874,86.523 109.877 C 85.449 109.880,85.056 109.956,85.650 110.046 M71.082 115.527 L 68.555 118.164 71.191 115.636 C 73.641 113.288,74.007 112.891,73.719 112.891 C 73.659 112.891,72.473 114.077,71.082 115.527 M79.276 115.137 L 77.930 116.602 79.395 115.255 C 80.758 114.002,81.039 113.672,80.741 113.672 C 80.675 113.672,80.016 114.331,79.276 115.137 M332.919 130.469 C 332.919 131.436,332.995 131.831,333.088 131.348 C 333.181 130.864,333.181 130.073,333.088 129.590 C 332.995 129.106,332.919 129.502,332.919 130.469 M87.682 161.328 C 87.682 173.252,87.732 178.130,87.793 172.168 C 87.853 166.206,87.853 156.450,87.793 150.488 C 87.732 144.526,87.682 149.404,87.682 161.328 M61.462 144.336 C 61.463 146.055,61.532 146.709,61.615 145.790 C 61.697 144.872,61.696 143.465,61.612 142.665 C 61.528 141.865,61.461 142.617,61.462 144.336 M347.049 155.273 C 347.049 161.934,347.102 164.713,347.167 161.450 C 347.232 158.187,347.232 152.738,347.167 149.341 C 347.102 145.944,347.049 148.613,347.049 155.273 M61.449 149.805 C 61.451 151.094,61.524 151.574,61.611 150.872 C 61.698 150.170,61.696 149.115,61.607 148.528 C 61.518 147.941,61.447 148.516,61.449 149.805 M235.313 161.719 C 235.313 165.049,235.373 166.411,235.447 164.746 C 235.520 163.081,235.520 160.356,235.447 158.691 C 235.373 157.026,235.313 158.389,235.313 161.719 M176.507 168.069 C 176.670 168.232,187.428 168.320,200.413 168.265 L 224.023 168.164 200.117 167.969 C 186.969 167.861,176.344 167.907,176.507 168.069 M72.266 171.289 C 73.433 172.471,74.475 173.438,74.583 173.438 C 74.690 173.438,73.823 172.471,72.656 171.289 C 71.489 170.107,70.447 169.141,70.339 169.141 C 70.232 169.141,71.099 170.107,72.266 171.289 M334.155 176.660 L 333.008 177.930 334.277 176.782 C 334.976 176.151,335.547 175.580,335.547 175.513 C 335.547 175.211,335.225 175.477,334.155 176.660 M164.318 179.865 C 159.975 181.419,160.096 180.486,160.234 211.133 C 160.367 240.823,160.181 239.156,163.643 241.602 L 165.301 242.773 200.041 242.877 C 237.872 242.990,235.574 243.117,238.032 240.790 C 240.293 238.648,240.235 239.450,240.228 210.657 L 240.222 184.180 239.347 182.617 C 238.774 181.593,237.879 180.755,236.749 180.184 L 235.024 179.313 200.422 179.320 C 172.049 179.326,165.550 179.424,164.318 179.865 M87.669 192.578 C 87.669 197.842,87.724 199.995,87.792 197.363 C 87.859 194.731,87.859 190.425,87.792 187.793 C 87.724 185.161,87.669 187.314,87.669 192.578 M148.622 210.156 C 148.622 224.014,148.671 229.683,148.730 222.754 C 148.790 215.825,148.790 204.487,148.730 197.559 C 148.671 190.630,148.622 196.299,148.622 210.156 M314.941 192.467 C 315.532 192.557,316.499 192.557,317.090 192.467 C 317.681 192.378,317.197 192.305,316.016 192.305 C 314.834 192.305,314.351 192.378,314.941 192.467 M203.649 193.520 C 212.192 196.003,214.198 208.611,206.811 213.395 L 205.478 214.258 205.474 221.749 L 205.469 229.240 204.395 230.085 C 203.443 230.833,202.931 230.915,199.913 230.797 C 194.662 230.592,194.727 230.708,194.727 221.473 C 194.727 217.397,194.588 214.062,194.418 214.062 C 193.715 214.063,190.924 210.835,190.125 209.098 C 186.058 200.255,194.271 190.794,203.649 193.520 M58.203 196.216 C 58.203 196.283,58.774 196.854,59.473 197.486 L 60.742 198.633 59.595 197.363 C 58.525 196.180,58.203 195.914,58.203 196.216 M77.644 202.236 C 78.346 202.323,79.400 202.321,79.987 202.232 C 80.574 202.143,80.000 202.072,78.711 202.074 C 77.422 202.076,76.942 202.149,77.644 202.236 M83.097 202.235 C 83.790 202.321,85.021 202.323,85.831 202.238 C 86.642 202.154,86.074 202.083,84.570 202.081 C 83.066 202.080,82.403 202.149,83.097 202.235 M87.677 223.047 C 87.677 231.318,87.729 234.702,87.792 230.566 C 87.856 226.431,87.856 219.663,87.792 215.527 C 87.729 211.392,87.677 214.775,87.677 223.047 M314.941 218.639 C 315.532 218.729,316.499 218.729,317.090 218.639 C 317.681 218.550,317.197 218.476,316.016 218.476 C 314.834 218.476,314.351 218.550,314.941 218.639 M315.527 224.114 C 316.440 224.196,317.935 224.196,318.848 224.114 C 319.761 224.032,319.014 223.965,317.188 223.965 C 315.361 223.965,314.614 224.032,315.527 224.114 M80.962 238.171 C 81.556 238.261,82.435 238.258,82.916 238.166 C 83.396 238.073,82.910 237.999,81.836 238.002 C 80.762 238.005,80.369 238.081,80.962 238.171 M62.282 257.031 C 62.282 263.369,62.336 265.962,62.402 262.793 C 62.467 259.624,62.467 254.438,62.402 251.270 C 62.336 248.101,62.282 250.693,62.282 257.031 M191.300 270.204 C 191.993 270.290,193.224 270.292,194.034 270.207 C 194.845 270.122,194.277 270.052,192.773 270.050 C 191.270 270.048,190.606 270.118,191.300 270.204 M211.844 284.375 C 211.844 285.771,211.915 286.343,212.001 285.645 C 212.088 284.946,212.088 283.804,212.001 283.105 C 211.915 282.407,211.844 282.979,211.844 284.375 M211.876 292.969 C 211.876 296.299,211.936 297.661,212.009 295.996 C 212.082 294.331,212.082 291.606,212.009 289.941 C 211.936 288.276,211.876 289.639,211.876 292.969 M211.836 301.563 C 211.836 302.744,211.909 303.228,211.999 302.637 C 212.088 302.046,212.088 301.079,211.999 300.488 C 211.909 299.897,211.836 300.381,211.836 301.563 M219.727 307.031 C 220.566 307.891,221.340 308.594,221.448 308.594 C 221.555 308.594,220.956 307.891,220.117 307.031 C 219.278 306.172,218.504 305.469,218.396 305.469 C 218.289 305.469,218.887 306.172,219.727 307.031 M231.934 311.994 C 232.417 312.088,233.208 312.088,233.691 311.994 C 234.175 311.901,233.779 311.825,232.813 311.825 C 231.846 311.825,231.450 311.901,231.934 311.994 M247.949 312.001 C 248.647 312.088,249.790 312.088,250.488 312.001 C 251.187 311.915,250.615 311.844,249.219 311.844 C 247.822 311.844,247.251 311.915,247.949 312.001 " stroke="none" fill="#4fcabb" fill-rule="evenodd"></path><path id="path2" d="M0.000 200.000 L 0.000 400.000 200.000 400.000 L 400.000 400.000 400.000 200.000 L 400.000 0.000 200.000 0.000 L 0.000 0.000 0.000 200.000 M119.179 56.995 C 121.445 58.162,123.190 59.870,124.039 61.753 L 124.728 63.281 145.910 63.281 C 171.197 63.281,167.736 62.388,176.451 71.161 C 186.558 81.333,186.197 80.612,186.284 90.820 L 186.328 95.898 205.371 95.793 L 224.414 95.688 224.414 85.637 C 224.414 73.018,224.191 73.645,230.631 68.164 C 236.862 62.860,235.322 63.311,247.274 63.295 L 257.635 63.281 258.407 61.816 C 263.748 51.689,278.923 55.645,278.902 67.159 C 278.884 77.702,264.125 81.602,258.778 72.477 L 257.738 70.703 248.471 70.703 L 239.204 70.703 235.844 73.535 C 231.627 77.090,231.764 76.646,231.670 86.993 L 231.591 95.666 253.198 95.791 L 274.805 95.916 278.320 97.005 C 294.393 101.988,305.995 113.500,311.048 129.478 L 312.287 133.398 312.412 159.473 L 312.536 185.547 318.859 185.547 L 325.182 185.547 332.513 178.114 L 339.844 170.682 339.844 156.081 L 339.844 141.480 338.127 140.474 C 331.705 136.711,330.626 128.293,335.892 123.032 C 345.202 113.732,359.568 124.780,353.252 136.384 C 352.287 138.157,349.130 141.016,348.137 141.016 C 347.377 141.016,347.195 144.836,347.310 158.381 C 347.447 174.485,347.845 172.890,342.240 178.715 C 340.170 180.866,336.614 184.645,334.338 187.114 C 328.851 193.065,328.614 193.155,319.291 192.875 L 312.500 192.671 312.500 205.418 L 312.499 218.164 319.439 218.050 L 326.379 217.936 327.468 215.855 C 332.145 206.924,345.858 209.850,346.776 219.976 C 347.159 224.204,344.977 228.273,341.248 230.281 L 339.844 231.037 339.844 251.872 C 339.844 266.311,339.711 272.970,339.412 273.561 C 339.175 274.030,333.947 279.467,327.796 285.642 L 316.612 296.869 317.987 298.003 C 327.392 305.755,317.648 320.673,306.740 315.223 C 299.308 311.509,299.180 300.537,306.525 296.841 C 308.883 295.654,313.493 291.352,324.512 280.053 L 333.203 271.141 333.203 250.990 L 333.203 230.840 332.324 230.502 C 330.931 229.967,327.887 227.092,327.356 225.811 L 326.872 224.642 319.725 224.528 L 312.579 224.414 312.396 233.398 C 311.907 257.383,298.418 273.945,274.609 279.794 C 271.440 280.572,270.075 280.616,244.531 280.754 L 217.773 280.898 217.882 292.784 L 217.991 304.669 221.398 307.989 L 224.805 311.309 242.027 311.319 L 259.250 311.328 259.673 310.400 C 263.700 301.561,277.159 303.485,279.242 313.197 C 281.769 324.978,264.104 330.842,259.514 319.746 L 258.794 318.004 240.598 317.889 L 222.403 317.773 220.830 316.732 C 219.111 315.594,213.047 309.170,212.109 307.493 C 211.622 306.621,211.523 304.298,211.523 293.653 L 211.523 280.860 197.461 280.875 L 183.398 280.891 165.820 296.548 C 132.411 326.306,134.193 324.925,130.568 323.864 C 125.437 322.362,125.391 322.141,125.391 299.176 L 125.391 279.850 123.535 279.367 C 109.279 275.656,98.524 267.168,92.414 254.804 C 90.270 250.467,87.891 242.294,87.891 239.270 C 87.891 238.233,87.750 237.993,87.207 238.104 C 85.958 238.359,81.871 238.644,79.236 238.658 L 76.635 238.672 72.497 242.634 L 68.359 246.597 68.359 257.826 L 68.359 269.056 69.371 269.310 C 69.927 269.449,71.216 270.397,72.235 271.417 C 78.950 278.132,74.312 289.445,64.844 289.445 C 53.741 289.445,50.335 274.643,60.254 269.495 L 61.719 268.734 61.719 257.875 C 61.719 243.478,61.394 244.483,68.148 237.992 C 73.774 232.584,74.725 232.031,78.403 232.031 C 79.473 232.031,81.958 231.917,83.924 231.777 L 87.500 231.524 87.500 219.863 L 87.500 208.203 75.684 208.198 C 69.185 208.195,63.503 208.095,63.058 207.975 C 62.431 207.807,62.018 208.108,61.221 209.312 C 55.348 218.187,42.901 215.379,41.928 204.959 C 40.861 193.536,59.192 189.603,61.968 200.660 C 62.186 201.532,62.334 201.563,66.351 201.563 C 68.637 201.564,74.331 201.680,79.004 201.821 L 87.500 202.078 87.500 192.671 L 87.500 183.265 84.863 183.036 C 73.785 182.074,74.631 182.461,67.716 175.196 C 60.790 167.919,61.471 170.806,61.222 147.656 C 60.956 123.002,59.894 126.724,70.245 116.033 L 78.577 107.428 77.789 106.426 C 72.533 99.744,78.912 88.704,87.251 90.051 C 99.586 92.043,99.452 109.842,87.100 110.178 L 84.570 110.246 80.941 114.010 C 78.944 116.080,75.121 120.079,72.445 122.898 L 67.578 128.022 67.578 146.862 L 67.578 165.701 72.168 170.371 C 77.407 175.702,77.525 175.757,83.691 175.772 L 87.500 175.781 87.500 158.291 C 87.500 148.594,87.681 139.325,87.905 137.490 C 90.352 117.512,105.821 100.304,124.609 96.662 C 126.989 96.200,132.357 96.094,153.223 96.094 L 178.906 96.094 178.906 90.801 C 178.906 84.187,179.278 84.867,171.391 77.051 L 164.986 70.703 144.860 70.703 L 124.735 70.703 124.329 71.593 C 120.618 79.739,108.599 79.579,104.488 71.329 C 100.067 62.458,110.335 52.439,119.179 56.995 M266.406 63.575 C 262.936 65.308,264.114 70.490,267.978 70.490 C 271.954 70.490,273.108 65.326,269.544 63.483 C 268.114 62.743,268.068 62.745,266.406 63.575 M111.896 64.240 C 109.675 66.461,111.232 70.326,114.338 70.300 C 116.771 70.280,118.236 68.537,117.795 66.187 C 117.285 63.470,113.812 62.324,111.896 64.240 M83.722 97.810 C 81.331 99.867,82.907 103.906,86.102 103.906 C 88.618 103.906,90.498 101.220,89.433 99.144 C 88.228 96.794,85.614 96.183,83.722 97.810 M168.555 106.639 C 128.314 106.846,127.901 106.856,124.924 107.700 C 112.398 111.247,101.623 122.921,99.041 135.742 C 97.951 141.160,98.339 239.340,99.467 243.164 C 103.484 256.789,112.877 265.563,127.131 269.006 C 136.539 271.278,136.323 270.730,136.326 292.326 L 136.328 308.284 138.379 306.347 C 141.009 303.862,142.452 302.574,158.392 288.477 C 165.679 282.031,172.968 275.548,174.590 274.070 C 176.212 272.592,178.066 271.054,178.711 270.654 C 179.836 269.954,181.617 269.924,223.242 269.911 C 247.281 269.904,267.820 269.738,269.336 269.539 C 284.791 267.509,297.235 257.029,300.816 243.030 C 302.014 238.346,301.969 136.803,300.767 132.466 C 297.236 119.723,285.055 108.744,272.119 106.644 C 269.659 106.245,245.263 106.244,168.555 106.639 M207.617 123.213 C 219.973 125.865,230.472 135.388,233.920 147.070 C 235.132 151.174,235.172 151.526,235.427 160.059 C 235.657 167.758,235.686 167.969,236.484 167.973 C 242.092 168.002,249.106 173.928,251.042 180.273 C 252.144 183.882,252.142 236.831,251.040 240.430 C 249.158 246.580,244.553 251.308,238.214 253.599 L 235.742 254.492 200.586 254.492 L 165.430 254.492 162.679 253.627 C 156.493 251.681,151.799 247.232,149.518 241.153 C 148.522 238.498,147.921 189.674,148.803 183.008 C 149.822 175.299,157.194 167.969,163.928 167.969 L 164.844 167.969 164.844 162.485 C 164.844 159.468,165.027 155.294,165.252 153.207 C 167.398 133.235,187.618 118.920,207.617 123.213 M341.840 127.498 C 338.461 129.371,339.804 134.375,343.685 134.375 C 347.386 134.375,348.565 129.221,345.256 127.510 C 343.935 126.827,343.057 126.824,341.840 127.498 M196.680 134.628 C 182.989 137.480,176.563 146.091,176.563 161.586 L 176.563 167.969 200.237 167.969 L 223.912 167.969 223.732 160.645 C 223.525 152.253,222.883 149.661,219.860 145.022 C 215.135 137.770,204.497 133.000,196.680 134.628 M49.887 201.567 C 48.569 202.604,48.216 204.299,49.003 205.819 C 50.975 209.633,56.596 207.447,55.414 203.325 C 54.727 200.929,51.859 200.016,49.887 201.567 M334.998 217.784 C 330.634 220.060,333.572 226.204,338.049 224.165 C 340.724 222.946,340.519 218.928,337.722 217.759 C 336.075 217.071,336.370 217.069,334.998 217.784 M62.793 275.813 C 60.963 276.878,60.576 279.757,62.042 281.392 C 65.240 284.959,70.434 280.260,67.348 276.592 C 66.273 275.315,64.244 274.967,62.793 275.813 M308.954 303.486 C 306.418 306.022,308.828 310.408,312.282 309.541 C 315.996 308.609,315.166 302.344,311.328 302.344 C 310.487 302.344,309.734 302.706,308.954 303.486 M267.090 311.750 C 264.988 312.974,264.726 315.976,266.563 317.813 C 268.160 319.410,269.422 319.511,271.017 318.168 C 274.343 315.370,270.803 309.587,267.090 311.750 " stroke="none" fill="#fbfbfb" fill-rule="evenodd"></path><path id="path3" d="M112.598 56.159 C 112.114 56.239,111.719 56.462,111.719 56.656 C 111.719 56.849,111.455 56.906,111.133 56.782 C 110.811 56.658,110.547 56.762,110.547 57.013 C 110.547 57.263,110.371 57.359,110.156 57.227 C 109.941 57.094,109.766 57.182,109.766 57.422 C 109.766 57.662,109.590 57.750,109.375 57.617 C 109.160 57.484,108.984 57.562,108.984 57.789 C 108.984 58.017,108.721 58.203,108.398 58.203 C 108.076 58.203,107.813 58.389,107.813 58.617 C 107.813 58.844,107.660 58.936,107.474 58.821 C 107.069 58.571,105.758 59.925,106.087 60.254 C 106.214 60.380,105.945 60.682,105.491 60.925 C 105.037 61.168,104.769 61.534,104.895 61.738 C 105.021 61.942,104.928 62.109,104.688 62.109 C 104.447 62.109,104.350 62.270,104.472 62.467 C 104.593 62.663,104.488 62.892,104.239 62.975 C 102.707 63.486,103.924 71.428,105.765 72.937 C 106.193 73.288,106.228 73.393,105.859 73.219 C 105.537 73.067,105.889 73.571,106.641 74.339 C 107.393 75.107,108.267 75.789,108.584 75.856 C 108.902 75.922,109.408 76.206,109.709 76.487 C 110.010 76.768,110.498 76.906,110.793 76.793 C 111.087 76.680,111.328 76.768,111.328 76.990 C 111.328 77.212,111.636 77.355,112.012 77.308 C 112.388 77.262,113.012 77.361,113.400 77.529 C 114.240 77.893,118.498 77.108,118.686 76.554 C 118.758 76.341,118.977 76.266,119.174 76.388 C 119.370 76.509,119.531 76.412,119.531 76.172 C 119.531 75.932,119.695 75.836,119.895 75.960 C 120.095 76.084,120.491 75.854,120.774 75.450 C 121.057 75.045,121.465 74.691,121.680 74.662 C 121.895 74.633,122.070 74.424,122.070 74.196 C 122.070 73.969,122.510 73.446,123.047 73.033 C 123.584 72.621,123.879 72.279,123.703 72.274 C 123.526 72.270,123.614 72.008,123.898 71.693 C 124.182 71.378,124.646 70.845,124.930 70.508 C 126.038 69.193,164.634 70.330,166.602 71.735 C 168.006 72.738,169.075 73.878,169.113 74.414 C 169.128 74.629,169.355 74.805,169.617 74.805 C 169.880 74.805,170.300 75.217,170.551 75.721 C 171.165 76.953,173.812 79.630,174.693 79.909 C 175.083 80.033,175.313 80.278,175.205 80.453 C 175.097 80.628,175.304 81.010,175.665 81.303 C 176.223 81.756,176.272 81.753,175.991 81.287 C 175.760 80.904,175.804 80.827,176.138 81.033 C 176.400 81.196,176.512 81.431,176.386 81.556 C 176.261 81.682,176.733 82.377,177.435 83.100 L 178.711 84.416 178.837 90.255 L 178.963 96.094 182.645 96.094 L 186.328 96.094 186.328 91.234 C 186.328 88.202,186.171 86.277,185.910 86.116 C 185.650 85.955,185.592 85.263,185.757 84.285 C 185.931 83.258,185.885 82.799,185.626 82.959 C 185.386 83.107,185.310 82.894,185.434 82.422 C 185.556 81.955,185.446 81.641,185.160 81.641 C 184.896 81.641,184.783 81.379,184.907 81.055 C 185.031 80.732,184.961 80.469,184.753 80.469 C 184.545 80.469,184.419 80.319,184.473 80.136 C 184.526 79.952,183.610 78.898,182.437 77.792 C 181.263 76.686,180.450 75.781,180.629 75.781 C 180.808 75.781,180.738 75.520,180.472 75.200 C 180.207 74.880,179.829 74.717,179.634 74.838 C 179.438 74.959,179.326 74.825,179.385 74.541 C 179.444 74.256,179.259 74.072,178.975 74.131 C 178.690 74.190,178.554 74.083,178.671 73.893 C 178.871 73.570,170.234 64.844,169.714 64.844 C 169.583 64.844,169.202 64.570,168.867 64.235 C 168.532 63.901,168.023 63.717,167.736 63.828 C 167.448 63.938,167.132 63.899,167.034 63.740 C 166.937 63.582,157.524 63.491,146.118 63.540 C 128.229 63.615,125.313 63.548,124.897 63.050 C 124.631 62.733,124.203 62.236,123.944 61.947 C 123.686 61.658,123.579 61.316,123.707 61.189 C 123.835 61.061,123.652 60.845,123.300 60.710 C 122.949 60.575,122.751 60.318,122.862 60.139 C 123.086 59.778,120.583 57.638,120.111 57.786 C 119.948 57.837,119.689 57.677,119.536 57.429 C 119.383 57.182,119.012 56.942,118.711 56.897 C 118.410 56.851,117.988 56.712,117.773 56.587 C 117.559 56.462,116.620 56.336,115.688 56.306 C 114.755 56.277,113.876 56.199,113.735 56.134 C 113.593 56.068,113.081 56.080,112.598 56.159 M266.702 56.084 C 266.579 56.208,266.154 56.370,265.758 56.445 C 265.363 56.520,264.995 56.616,264.941 56.660 C 264.888 56.703,264.712 56.769,264.551 56.806 C 263.415 57.070,262.500 57.531,262.500 57.839 C 262.500 58.039,262.354 58.159,262.174 58.105 C 261.995 58.052,261.187 58.667,260.378 59.473 C 259.568 60.278,259.056 60.940,259.238 60.943 C 259.421 60.947,259.390 61.079,259.171 61.236 C 258.951 61.394,258.484 61.976,258.133 62.528 L 257.495 63.533 247.204 63.575 C 241.545 63.598,236.675 63.629,236.383 63.644 C 236.090 63.659,235.080 64.455,234.137 65.411 C 233.194 66.368,232.422 67.027,232.421 66.876 C 232.421 66.725,231.938 67.069,231.347 67.640 C 229.267 69.653,227.701 71.065,227.426 71.176 C 227.274 71.238,227.192 71.421,227.246 71.582 C 227.300 71.743,227.124 71.831,226.855 71.777 C 226.587 71.724,226.411 71.899,226.465 72.168 C 226.519 72.437,226.399 72.656,226.198 72.656 C 225.890 72.656,225.429 73.571,225.166 74.707 C 225.128 74.868,225.054 75.088,225.000 75.195 C 224.403 76.390,224.031 91.797,224.599 91.797 C 224.885 91.797,225.000 92.458,224.924 93.652 L 224.805 95.508 206.445 95.709 L 188.086 95.910 206.325 96.002 C 218.475 96.063,224.646 95.960,224.811 95.693 C 225.083 95.253,231.046 95.368,231.499 95.822 C 231.649 95.972,231.951 96.094,232.171 96.094 C 232.391 96.094,232.278 95.874,231.920 95.605 C 231.209 95.072,231.128 78.845,231.828 77.148 C 232.285 76.040,233.253 74.985,233.610 75.206 C 233.777 75.309,234.397 74.821,234.988 74.122 C 235.580 73.423,236.199 72.891,236.364 72.940 C 236.529 72.989,237.116 72.492,237.668 71.836 C 238.220 71.180,238.672 70.747,238.672 70.874 C 238.672 71.000,239.278 70.851,240.018 70.542 C 241.048 70.111,243.256 69.984,249.424 70.000 L 257.483 70.020 257.906 70.948 C 258.138 71.458,258.476 71.875,258.656 71.875 C 258.837 71.875,258.984 72.061,258.984 72.288 C 258.984 72.938,262.489 76.225,262.906 75.967 C 263.113 75.839,263.281 75.908,263.281 76.119 C 263.281 77.024,268.010 77.751,270.703 77.260 C 271.862 77.049,273.411 76.207,274.142 75.391 C 274.609 74.870,274.634 74.870,274.366 75.391 C 274.200 75.713,274.626 75.450,275.313 74.806 C 276.000 74.162,276.563 73.415,276.563 73.146 C 276.563 72.877,276.736 72.656,276.948 72.656 C 277.321 72.656,278.553 70.143,278.445 69.602 C 278.416 69.456,278.531 69.016,278.701 68.626 C 279.062 67.797,278.706 63.658,278.245 63.318 C 278.071 63.190,277.873 62.822,277.803 62.500 C 277.733 62.178,277.513 61.855,277.314 61.784 C 277.116 61.712,276.953 61.490,276.953 61.291 C 276.953 60.731,274.086 57.814,273.535 57.813 C 273.267 57.813,273.047 57.626,273.047 57.399 C 273.047 57.171,272.886 57.085,272.690 57.206 C 272.493 57.327,272.267 57.231,272.188 56.992 C 272.108 56.753,271.490 56.530,270.814 56.496 C 270.138 56.462,269.456 56.305,269.298 56.147 C 268.958 55.807,267.026 55.760,266.702 56.084 M115.204 63.281 C 116.695 63.281,118.219 65.657,117.903 67.490 C 117.678 68.795,116.406 71.069,116.406 70.165 C 116.406 70.053,115.791 70.219,115.039 70.533 C 114.231 70.871,113.672 70.942,113.672 70.708 C 113.672 70.491,113.480 70.313,113.245 70.313 C 112.757 70.313,110.752 68.810,110.723 68.422 C 110.712 68.280,110.566 67.760,110.398 67.266 C 110.208 66.709,110.270 66.154,110.562 65.802 C 110.821 65.490,110.910 65.234,110.760 65.234 C 110.610 65.234,111.061 64.751,111.764 64.160 C 112.466 63.569,113.168 63.086,113.323 63.086 C 113.479 63.086,113.750 62.943,113.924 62.769 C 114.099 62.594,114.304 62.638,114.380 62.866 C 114.456 63.094,114.827 63.281,115.204 63.281 M269.412 63.264 C 270.818 64.121,271.998 65.723,272.084 66.890 C 272.141 67.653,269.083 71.296,268.704 70.917 C 268.599 70.813,267.956 70.685,267.275 70.633 C 266.594 70.581,265.945 70.301,265.833 70.010 C 265.722 69.720,265.426 69.608,265.177 69.762 C 264.904 69.931,264.828 69.873,264.987 69.616 C 265.132 69.381,264.939 69.007,264.559 68.786 C 264.179 68.564,263.995 68.378,264.150 68.371 C 264.306 68.365,264.259 67.899,264.044 67.335 C 263.771 66.617,263.789 66.150,264.102 65.773 C 264.348 65.477,264.426 65.234,264.276 65.234 C 263.765 65.234,267.368 62.591,267.969 62.524 C 268.076 62.513,268.726 62.845,269.412 63.264 M83.105 90.546 C 82.729 90.621,82.422 90.856,82.422 91.067 C 82.422 91.279,82.246 91.344,82.031 91.211 C 81.816 91.078,81.641 91.166,81.641 91.406 C 81.641 91.646,81.467 91.736,81.255 91.605 C 81.044 91.474,80.129 92.079,79.224 92.949 C 78.318 93.819,77.744 94.537,77.949 94.543 C 78.153 94.550,78.009 94.736,77.629 94.958 C 77.248 95.179,77.039 95.525,77.163 95.727 C 77.288 95.929,77.174 96.094,76.911 96.094 C 76.648 96.094,76.548 96.209,76.689 96.351 C 76.831 96.492,76.728 96.871,76.461 97.192 C 75.784 98.009,75.813 103.053,76.498 103.476 C 76.785 103.653,77.010 103.867,76.998 103.950 C 76.914 104.519,77.509 105.859,77.845 105.859 C 78.071 105.859,78.140 105.975,77.998 106.116 C 77.857 106.258,77.945 106.619,78.193 106.918 C 78.555 107.354,78.183 107.939,76.335 109.841 C 75.063 111.149,74.287 112.089,74.609 111.932 C 74.932 111.774,72.295 114.470,68.750 117.924 C 65.205 121.378,62.349 124.383,62.402 124.602 C 62.456 124.821,62.314 125.000,62.086 125.000 C 61.859 125.000,61.774 125.164,61.897 125.364 C 62.021 125.564,61.971 125.821,61.786 125.935 C 61.005 126.418,61.482 167.841,62.278 168.721 C 62.682 169.167,62.853 169.536,62.658 169.542 C 62.464 169.549,63.799 170.983,65.625 172.731 C 67.451 174.478,68.594 175.663,68.164 175.363 C 67.393 174.825,67.392 174.829,68.119 175.681 C 68.523 176.156,69.034 176.433,69.253 176.298 C 69.473 176.162,69.541 176.230,69.406 176.449 C 69.042 177.039,74.106 181.767,74.812 181.497 C 75.130 181.375,75.391 181.464,75.391 181.695 C 75.391 181.926,75.649 182.016,75.964 181.895 C 76.279 181.774,76.630 181.825,76.744 182.008 C 76.857 182.192,77.566 182.313,78.319 182.277 C 79.072 182.242,79.688 182.360,79.688 182.539 C 79.688 182.718,80.919 182.825,82.424 182.776 C 83.930 182.727,85.277 182.803,85.419 182.945 C 86.730 184.256,87.304 183.189,87.225 179.590 L 87.145 175.977 82.300 175.778 C 79.315 175.655,77.233 175.394,76.875 175.098 C 76.556 174.833,76.180 174.732,76.038 174.873 C 75.897 175.015,75.781 174.832,75.781 174.467 C 75.781 174.102,75.474 173.697,75.098 173.566 C 74.186 173.249,70.302 169.474,70.522 169.118 C 70.617 168.964,70.399 168.599,70.038 168.306 C 69.480 167.854,69.431 167.856,69.712 168.322 C 69.938 168.697,69.898 168.781,69.585 168.588 C 69.334 168.433,69.213 168.167,69.318 167.999 C 69.422 167.830,69.073 167.284,68.543 166.786 L 67.578 165.879 67.578 146.565 L 67.578 127.251 73.535 121.388 C 76.812 118.163,79.141 115.748,78.711 116.020 C 78.281 116.293,79.512 114.991,81.445 113.128 L 84.961 109.739 87.012 109.882 C 88.140 109.961,89.063 109.860,89.063 109.658 C 89.063 109.457,89.351 109.402,89.703 109.537 C 90.790 109.954,94.973 106.374,95.747 104.366 C 96.273 103.000,96.600 99.721,96.264 99.178 C 96.101 98.915,95.927 98.179,95.877 97.543 C 95.827 96.907,95.636 96.277,95.452 96.142 C 95.268 96.008,95.059 95.635,94.988 95.313 C 94.815 94.523,92.092 91.810,91.710 92.046 C 91.543 92.149,91.406 92.037,91.406 91.797 C 91.406 91.557,91.230 91.469,91.016 91.602 C 90.801 91.734,90.625 91.646,90.625 91.406 C 90.625 91.166,90.464 91.069,90.268 91.190 C 90.071 91.312,89.843 91.209,89.761 90.962 C 89.618 90.535,84.705 90.228,83.105 90.546 M87.686 97.018 C 88.682 97.155,90.770 101.563,89.839 101.563 C 89.656 101.563,89.408 101.871,89.289 102.247 C 88.317 105.307,83.445 104.350,82.458 100.906 C 81.884 98.907,84.524 96.211,86.523 96.753 C 86.953 96.870,87.476 96.989,87.686 97.018 M180.371 106.543 C 185.581 106.604,194.106 106.604,199.316 106.543 C 204.526 106.481,200.264 106.431,189.844 106.431 C 179.424 106.431,175.161 106.481,180.371 106.543 M341.113 119.784 C 340.630 119.890,340.234 120.102,340.234 120.257 C 340.234 120.411,339.842 120.566,339.363 120.603 C 338.884 120.639,338.293 120.940,338.050 121.272 C 337.808 121.603,337.423 121.875,337.194 121.875 C 336.608 121.875,333.965 125.043,334.215 125.447 C 334.328 125.631,334.225 125.781,333.984 125.781 C 333.744 125.781,333.656 125.957,333.789 126.172 C 333.922 126.387,333.826 126.563,333.575 126.563 C 333.325 126.563,333.221 126.826,333.344 127.148 C 333.468 127.471,333.442 127.734,333.287 127.734 C 332.079 127.734,333.471 136.416,334.793 137.124 C 335.203 137.344,335.497 137.726,335.445 137.974 C 335.394 138.222,335.835 138.665,336.426 138.960 C 337.017 139.255,337.500 139.642,337.500 139.821 C 337.500 139.999,338.115 140.437,338.867 140.794 C 339.619 141.151,340.258 141.742,340.288 142.108 C 340.480 144.517,340.381 169.531,340.179 169.531 C 340.041 169.531,339.819 169.969,339.684 170.503 C 339.550 171.040,336.603 174.298,333.099 177.784 C 329.611 181.253,326.978 183.970,327.246 183.820 C 328.334 183.213,327.642 183.978,326.419 184.734 C 325.242 185.461,324.491 185.548,319.290 185.553 C 312.349 185.560,312.695 185.366,312.695 189.258 L 312.695 192.383 315.430 192.469 C 316.934 192.517,319.894 192.661,322.009 192.790 C 324.124 192.919,326.146 192.895,326.502 192.737 C 326.857 192.579,327.280 192.413,327.441 192.368 C 327.603 192.322,327.866 192.242,328.027 192.190 C 328.188 192.138,328.452 192.116,328.613 192.141 C 328.774 192.167,328.906 192.001,328.906 191.774 C 328.906 191.546,329.095 191.477,329.325 191.619 C 329.690 191.844,331.119 190.491,336.874 184.475 C 337.540 183.777,337.975 183.206,337.839 183.205 C 337.703 183.204,339.610 181.193,342.076 178.735 C 344.543 176.278,346.454 174.096,346.325 173.886 C 346.195 173.676,346.277 173.441,346.507 173.365 C 346.737 173.288,347.006 172.614,347.103 171.867 C 347.201 171.119,347.384 169.761,347.510 168.848 C 347.662 167.740,347.592 167.188,347.298 167.188 C 346.404 167.188,346.765 142.438,347.671 141.556 C 349.510 139.767,350.101 139.292,349.801 139.844 C 349.626 140.166,350.258 139.652,351.206 138.701 C 352.154 137.750,352.917 136.871,352.902 136.747 C 352.886 136.624,353.106 136.291,353.390 136.007 C 353.850 135.547,354.073 134.606,353.809 134.240 C 353.755 134.165,353.918 133.855,354.171 133.550 C 354.719 132.890,354.793 128.627,354.263 128.299 C 354.060 128.174,353.989 127.916,354.106 127.727 C 354.447 127.176,352.808 124.045,351.547 122.836 C 350.911 122.227,350.391 121.883,350.391 122.071 C 350.391 122.259,350.029 122.024,349.586 121.549 C 349.144 121.074,348.616 120.788,348.414 120.913 C 348.212 121.038,348.047 120.943,348.047 120.703 C 348.047 120.463,347.886 120.366,347.690 120.487 C 347.493 120.609,347.268 120.514,347.189 120.277 C 347.036 119.820,342.598 119.460,341.113 119.784 M346.268 128.271 C 348.606 130.751,347.106 134.194,343.575 134.454 C 342.182 134.556,341.863 134.411,340.918 133.247 C 337.698 129.280,342.770 124.562,346.268 128.271 M251.747 210.547 C 251.747 224.834,251.796 230.679,251.855 223.535 C 251.915 216.392,251.915 204.702,251.855 197.559 C 251.796 190.415,251.747 196.260,251.747 210.547 M98.164 189.453 C 98.164 190.635,98.237 191.118,98.327 190.527 C 98.416 189.937,98.416 188.970,98.327 188.379 C 98.237 187.788,98.164 188.271,98.164 189.453 M50.488 194.032 C 50.005 194.122,49.609 194.366,49.609 194.576 C 49.609 194.785,49.390 194.928,49.121 194.893 C 48.122 194.763,47.665 194.944,46.833 195.801 C 46.363 196.284,46.120 196.416,46.292 196.094 C 46.464 195.771,46.051 196.024,45.373 196.655 C 44.695 197.286,44.141 198.039,44.141 198.328 C 44.141 198.616,43.878 198.953,43.557 199.077 C 43.236 199.200,43.070 199.458,43.189 199.650 C 43.308 199.843,43.209 200.000,42.969 200.000 C 42.729 200.000,42.633 200.164,42.757 200.364 C 42.880 200.564,42.826 200.823,42.636 200.941 C 42.446 201.058,42.270 202.027,42.246 203.094 C 42.222 204.160,42.164 205.175,42.116 205.348 C 41.929 206.028,42.636 208.594,43.010 208.594 C 43.227 208.594,43.297 208.770,43.164 208.984 C 43.031 209.199,43.119 209.375,43.359 209.375 C 43.600 209.375,43.704 209.524,43.592 209.706 C 43.402 210.013,46.999 213.436,47.588 213.509 C 47.733 213.527,48.291 213.720,48.828 213.938 C 50.138 214.470,54.350 214.504,54.972 213.989 C 55.245 213.762,55.469 213.690,55.469 213.829 C 55.469 214.358,58.059 212.713,59.563 211.228 C 60.427 210.376,60.869 209.812,60.547 209.975 C 60.225 210.138,60.339 209.904,60.800 209.454 C 61.261 209.005,61.711 208.421,61.799 208.157 C 61.954 207.693,85.279 207.397,86.645 207.841 C 87.033 207.967,87.175 207.296,87.231 205.078 L 87.305 202.148 82.227 202.238 C 79.434 202.287,76.885 202.229,76.563 202.108 C 76.240 201.987,73.596 201.911,70.686 201.938 C 63.555 202.006,62.261 201.777,61.768 200.364 C 61.374 199.233,57.968 195.678,57.616 196.030 C 57.509 196.136,57.422 196.009,57.422 195.745 C 57.422 195.482,57.265 195.364,57.072 195.483 C 56.880 195.601,56.615 195.418,56.483 195.074 C 56.351 194.731,56.003 194.543,55.708 194.656 C 55.414 194.768,55.020 194.721,54.833 194.551 C 54.394 194.151,51.626 193.821,50.488 194.032 M98.138 196.094 C 98.138 196.846,98.218 197.153,98.316 196.777 C 98.414 196.401,98.414 195.786,98.316 195.410 C 98.218 195.034,98.138 195.342,98.138 196.094 M54.683 201.704 C 56.152 203.767,56.181 204.013,55.172 205.922 C 53.260 209.543,48.384 208.275,48.661 204.228 C 48.828 201.792,48.900 201.563,49.491 201.563 C 49.785 201.563,50.109 201.342,50.213 201.072 C 50.534 200.234,53.985 200.722,54.683 201.704 M334.665 210.971 C 334.287 211.190,333.816 211.270,333.618 211.148 C 333.419 211.025,333.145 211.106,333.008 211.328 C 332.871 211.550,332.595 211.630,332.395 211.507 C 332.195 211.383,332.031 211.479,332.031 211.719 C 332.031 211.959,331.846 212.041,331.620 211.901 C 331.130 211.598,327.265 215.572,327.570 216.066 C 327.686 216.253,327.584 216.406,327.344 216.406 C 327.104 216.406,326.990 216.540,327.091 216.704 C 327.932 218.064,326.254 218.461,319.451 218.508 L 312.695 218.555 312.695 221.289 L 312.695 224.023 319.457 223.977 C 326.431 223.929,327.344 224.117,327.344 225.600 C 327.344 225.899,327.710 226.341,328.158 226.580 C 328.607 226.820,328.870 227.120,328.744 227.246 C 328.420 227.570,329.700 228.906,330.334 228.906 C 330.623 228.906,330.859 229.085,330.859 229.303 C 330.859 229.522,331.480 229.996,332.238 230.357 L 333.616 231.015 333.361 251.152 L 333.106 271.289 328.955 275.671 C 322.612 282.366,311.948 293.132,311.641 293.149 C 311.490 293.157,311.139 293.410,310.859 293.710 C 310.438 294.162,310.452 294.207,310.938 293.976 C 311.260 293.822,310.840 294.319,310.005 295.080 C 309.170 295.842,308.335 296.371,308.150 296.256 C 307.964 296.141,307.813 296.244,307.813 296.484 C 307.813 296.725,307.637 296.812,307.422 296.680 C 307.207 296.547,307.031 296.635,307.031 296.875 C 307.031 297.115,306.855 297.203,306.641 297.070 C 306.426 296.938,306.250 297.015,306.250 297.243 C 306.250 297.470,306.118 297.617,305.957 297.569 C 305.575 297.456,302.925 300.106,303.038 300.488 C 303.086 300.649,302.939 300.781,302.711 300.781 C 302.484 300.781,302.406 300.957,302.539 301.172 C 302.672 301.387,302.584 301.563,302.344 301.563 C 302.104 301.563,302.016 301.738,302.148 301.953 C 302.281 302.168,302.192 302.344,301.950 302.344 C 301.688 302.344,301.610 302.659,301.758 303.125 C 301.894 303.555,301.842 303.906,301.643 303.906 C 301.443 303.906,301.294 304.873,301.311 306.055 C 301.328 307.236,301.463 308.203,301.611 308.203 C 301.759 308.203,301.795 308.528,301.691 308.926 C 301.587 309.324,301.771 309.918,302.100 310.247 C 302.428 310.576,302.588 310.953,302.455 311.086 C 302.322 311.219,302.419 311.328,302.669 311.328 C 302.920 311.328,303.081 311.467,303.027 311.636 C 302.924 311.962,305.070 314.258,305.479 314.258 C 305.611 314.258,306.013 314.551,306.372 314.909 C 307.109 315.646,309.152 316.200,309.756 315.826 C 309.976 315.690,310.156 315.765,310.156 315.993 C 310.156 316.220,310.684 316.406,311.328 316.406 C 311.973 316.406,312.500 316.241,312.500 316.038 C 312.500 315.836,312.877 315.742,313.337 315.831 C 313.798 315.920,314.369 315.868,314.607 315.717 C 315.034 315.445,315.249 315.379,316.017 315.283 C 317.279 315.126,321.379 310.152,320.893 309.367 C 320.763 309.157,320.862 308.984,321.112 308.984 C 321.373 308.984,321.463 308.712,321.324 308.349 C 321.190 307.999,321.271 307.483,321.505 307.202 C 321.811 306.833,321.805 306.458,321.481 305.854 C 321.235 305.394,321.140 304.740,321.270 304.402 C 321.553 303.663,320.792 301.172,320.282 301.172 C 320.084 301.172,319.966 301.031,320.020 300.859 C 320.073 300.687,319.302 299.741,318.307 298.757 L 316.496 296.968 320.971 292.527 C 323.432 290.084,325.704 287.597,326.020 286.999 C 326.337 286.401,326.736 285.999,326.908 286.105 C 327.080 286.211,327.810 285.689,328.530 284.946 C 329.251 284.202,329.739 283.594,329.614 283.594 C 329.489 283.594,330.048 282.871,330.856 281.987 C 331.664 281.103,332.429 280.444,332.557 280.522 C 332.926 280.747,337.876 275.683,337.647 275.313 C 337.534 275.130,337.587 275.029,337.764 275.088 C 337.941 275.147,338.161 275.020,338.253 274.805 C 338.345 274.590,338.663 274.172,338.959 273.875 C 339.256 273.579,339.408 273.101,339.297 272.814 C 339.187 272.526,339.278 272.179,339.499 272.042 C 339.772 271.873,339.813 265.319,339.627 251.619 L 339.354 231.445 340.380 230.569 C 340.944 230.087,341.412 229.823,341.419 229.983 C 341.426 230.143,341.689 229.932,342.005 229.515 C 342.320 229.098,342.578 228.892,342.578 229.057 C 342.578 229.222,343.105 228.830,343.750 228.185 C 344.395 227.541,344.922 226.824,344.922 226.593 C 344.922 226.361,345.086 226.172,345.286 226.172 C 345.642 226.172,346.148 225.001,346.300 223.828 C 346.342 223.506,346.510 222.927,346.674 222.542 C 346.838 222.156,346.854 221.189,346.710 220.393 C 346.566 219.597,346.389 218.594,346.317 218.164 C 346.111 216.935,345.653 216.016,345.248 216.016 C 345.043 216.016,344.978 215.850,345.103 215.648 C 345.397 215.172,343.000 212.434,342.539 212.720 C 342.346 212.839,342.188 212.771,342.188 212.568 C 342.188 212.001,339.604 210.904,338.903 211.173 C 338.561 211.304,338.281 211.217,338.281 210.979 C 338.281 210.437,335.592 210.431,334.665 210.971 M337.900 217.676 C 339.109 218.495,340.701 220.733,340.543 221.390 C 340.458 221.742,339.937 222.417,338.758 223.699 C 336.403 226.261,331.439 222.937,332.826 219.727 C 332.872 219.619,332.932 219.318,332.959 219.058 C 332.986 218.798,333.535 218.314,334.180 217.984 C 334.824 217.653,335.410 217.251,335.482 217.090 C 335.713 216.569,336.574 216.777,337.900 217.676 M75.913 232.524 C 75.811 232.690,75.567 232.726,75.372 232.605 C 74.761 232.228,73.329 233.185,70.898 235.597 C 69.609 236.876,67.372 238.994,65.928 240.303 C 64.483 241.612,63.385 242.821,63.489 242.988 C 63.592 243.156,63.490 243.355,63.262 243.431 C 63.035 243.507,62.783 243.917,62.704 244.343 C 62.625 244.769,62.543 245.205,62.522 245.313 C 62.501 245.420,62.443 250.691,62.394 257.026 L 62.305 268.544 61.133 269.097 C 60.488 269.400,59.818 269.890,59.644 270.184 C 59.470 270.479,59.187 270.633,59.015 270.527 C 58.715 270.341,56.697 272.347,56.580 272.948 C 56.549 273.110,56.301 273.418,56.029 273.633 C 55.411 274.121,54.255 277.539,54.480 278.212 C 54.572 278.486,54.728 279.590,54.827 280.664 C 55.032 282.875,55.390 283.984,55.901 283.984 C 56.093 283.984,56.206 284.139,56.152 284.328 C 55.999 284.869,57.812 287.156,58.203 286.914 C 58.396 286.795,58.735 287.033,58.954 287.444 C 59.296 288.082,60.294 288.563,61.914 288.870 C 62.129 288.910,62.393 288.986,62.500 289.039 C 63.938 289.740,69.271 288.932,70.354 287.849 C 70.761 287.442,71.094 287.228,71.094 287.373 C 71.094 287.518,71.528 287.228,72.058 286.730 C 72.589 286.232,72.937 285.685,72.831 285.514 C 72.726 285.344,72.951 285.023,73.332 284.802 C 73.712 284.580,73.879 284.393,73.703 284.387 C 73.526 284.380,73.651 284.105,73.981 283.776 C 75.102 282.655,75.910 277.603,75.098 276.790 C 74.808 276.500,74.753 276.305,74.658 275.223 C 74.631 274.916,74.333 274.389,73.996 274.051 C 73.658 273.714,73.526 273.432,73.703 273.425 C 73.879 273.418,73.682 273.155,73.265 272.839 C 72.848 272.524,72.656 272.266,72.837 272.266 C 73.019 272.266,72.854 271.918,72.469 271.494 C 72.085 271.069,71.637 270.804,71.473 270.905 C 71.309 271.007,71.071 270.815,70.942 270.481 C 70.814 270.146,70.532 269.982,70.315 270.115 C 70.099 270.249,69.922 270.162,69.922 269.922 C 69.922 269.682,69.746 269.594,69.531 269.727 C 69.316 269.859,69.141 269.771,69.141 269.531 C 69.141 269.291,68.965 269.203,68.750 269.336 C 68.265 269.636,68.324 270.794,68.194 258.398 C 68.125 251.889,68.234 247.478,68.479 246.875 C 68.698 246.338,68.846 245.763,68.810 245.597 C 68.774 245.431,69.143 245.144,69.631 244.958 C 70.118 244.773,71.756 243.283,73.270 241.647 C 75.865 238.843,76.123 238.669,77.758 238.617 C 78.712 238.587,79.697 238.402,79.947 238.206 C 80.197 238.011,81.939 237.904,83.819 237.968 L 87.237 238.086 87.368 235.100 L 87.499 232.113 81.799 232.168 C 78.664 232.198,76.016 232.358,75.913 232.524 M98.145 234.570 C 98.150 235.430,98.230 235.735,98.323 235.249 C 98.417 234.763,98.413 234.060,98.315 233.687 C 98.217 233.313,98.141 233.711,98.145 234.570 M183.525 254.590 C 192.619 254.648,207.384 254.648,216.338 254.590 C 225.291 254.531,217.852 254.483,199.805 254.483 C 181.758 254.483,174.432 254.531,183.525 254.590 M66.005 275.434 C 67.891 275.999,69.323 279.827,67.962 280.668 C 67.744 280.803,67.653 281.056,67.761 281.230 C 68.001 281.618,64.347 283.249,64.067 282.880 C 63.957 282.735,63.387 282.368,62.799 282.066 C 62.212 281.763,61.629 281.192,61.504 280.797 C 61.378 280.402,61.130 280.078,60.952 280.078 C 60.638 280.078,60.965 278.198,61.507 276.891 C 62.072 275.525,64.109 274.865,66.005 275.434 M125.572 299.219 C 125.572 310.068,125.622 314.507,125.683 309.082 C 125.745 303.657,125.745 294.780,125.683 289.355 C 125.622 283.931,125.572 288.369,125.572 299.219 M240.723 280.738 C 241.099 280.836,241.714 280.836,242.090 280.738 C 242.466 280.640,242.158 280.559,241.406 280.559 C 240.654 280.559,240.347 280.640,240.723 280.738 M245.215 280.755 C 246.128 280.837,247.622 280.837,248.535 280.755 C 249.448 280.673,248.701 280.605,246.875 280.605 C 245.049 280.605,244.302 280.673,245.215 280.755 M250.879 280.738 C 251.255 280.836,251.870 280.836,252.246 280.738 C 252.622 280.640,252.314 280.559,251.563 280.559 C 250.811 280.559,250.503 280.640,250.879 280.738 M254.395 280.753 C 255.200 280.838,256.519 280.838,257.324 280.753 C 258.130 280.669,257.471 280.600,255.859 280.600 C 254.248 280.600,253.589 280.669,254.395 280.753 M211.982 293.750 C 212.019 300.732,212.084 306.621,212.126 306.836 C 212.168 307.051,212.181 307.358,212.156 307.520 C 212.130 307.681,212.285 307.813,212.500 307.813 C 212.715 307.813,212.891 308.020,212.891 308.274 C 212.891 308.764,220.515 316.261,221.856 317.090 C 222.458 317.462,226.919 317.578,240.606 317.578 L 258.566 317.578 259.054 318.457 C 259.323 318.940,259.549 319.462,259.556 319.616 C 259.564 319.770,259.845 320.218,260.181 320.610 C 260.517 321.003,260.907 321.623,261.048 321.990 C 261.189 322.356,261.583 322.656,261.925 322.656 C 262.267 322.656,262.449 322.814,262.330 323.006 C 262.118 323.350,263.196 324.012,263.770 323.890 C 263.931 323.856,264.063 323.983,264.063 324.171 C 264.063 324.727,266.281 325.483,267.126 325.215 C 267.553 325.079,268.016 325.151,268.154 325.375 C 268.492 325.921,270.313 325.896,270.313 325.345 C 270.313 325.091,270.663 325.001,271.154 325.129 C 272.009 325.353,274.180 324.464,274.701 323.676 C 274.859 323.437,274.991 323.409,274.994 323.612 C 274.997 323.815,275.608 323.392,276.352 322.671 C 277.096 321.950,277.613 321.213,277.501 321.032 C 277.389 320.851,277.494 320.703,277.734 320.703 C 277.975 320.703,278.062 320.527,277.930 320.313 C 277.797 320.098,277.856 319.922,278.060 319.922 C 278.265 319.922,278.556 319.614,278.709 319.238 C 279.135 318.183,279.291 312.500,278.893 312.500 C 278.699 312.500,278.641 312.236,278.765 311.914 C 278.889 311.592,278.785 311.328,278.534 311.328 C 278.284 311.328,278.188 311.152,278.320 310.938 C 278.453 310.723,278.365 310.547,278.125 310.547 C 277.885 310.547,277.790 310.382,277.915 310.180 C 278.039 309.979,277.830 309.632,277.450 309.411 C 277.069 309.189,276.923 309.003,277.124 308.996 C 277.325 308.990,276.991 308.463,276.380 307.826 C 275.770 307.189,275.121 306.761,274.937 306.875 C 274.754 306.988,274.499 306.807,274.370 306.472 C 274.242 306.138,273.980 305.961,273.787 306.080 C 273.595 306.199,273.438 306.091,273.438 305.841 C 273.438 305.590,273.185 305.482,272.877 305.600 C 272.568 305.719,272.256 305.636,272.183 305.418 C 271.720 304.027,264.211 305.004,263.295 306.574 C 263.086 306.933,262.909 307.064,262.903 306.866 C 262.884 306.302,260.938 308.275,260.938 308.857 C 260.938 309.142,260.762 309.375,260.547 309.375 C 260.332 309.375,260.156 309.558,260.156 309.782 C 260.156 311.848,259.673 311.910,243.044 311.972 C 226.979 312.031,225.160 311.886,223.807 310.435 C 223.364 309.959,222.873 309.570,222.715 309.570 C 222.188 309.570,218.680 306.069,218.114 304.979 C 217.666 304.114,217.563 301.673,217.590 292.540 L 217.624 281.177 214.769 281.116 L 211.914 281.055 211.982 293.750 M312.763 302.497 C 315.771 303.192,315.492 308.219,312.372 309.526 C 309.533 310.716,306.142 306.124,308.281 303.984 C 308.539 303.727,308.583 303.515,308.379 303.514 C 308.175 303.512,308.532 303.193,309.172 302.804 C 310.394 302.062,310.748 302.032,312.763 302.497 M271.766 312.891 C 272.410 313.660,272.993 315.715,272.708 316.211 C 272.584 316.426,272.450 316.818,272.410 317.082 C 272.113 319.037,268.313 319.728,266.292 318.194 C 265.503 317.596,264.693 313.672,265.358 313.672 C 265.576 313.672,265.644 313.561,265.508 313.425 C 265.122 313.038,267.125 311.635,268.493 311.333 C 269.727 311.061,270.573 311.464,271.766 312.891 " stroke="none" fill="#7ec4e8" fill-rule="evenodd"></path><path id="path4" d="M114.355 56.135 C 114.839 56.228,115.630 56.228,116.113 56.135 C 116.597 56.042,116.201 55.966,115.234 55.966 C 114.268 55.966,113.872 56.042,114.355 56.135 M110.638 66.797 C 110.638 67.549,110.718 67.856,110.816 67.480 C 110.914 67.104,110.914 66.489,110.816 66.113 C 110.718 65.737,110.638 66.045,110.638 66.797 M131.738 70.605 C 135.767 70.668,142.358 70.668,146.387 70.605 C 150.415 70.541,147.119 70.489,139.063 70.489 C 131.006 70.489,127.710 70.541,131.738 70.605 M244.651 70.604 C 247.187 70.673,251.230 70.672,253.635 70.604 C 256.040 70.535,253.965 70.480,249.023 70.480 C 244.082 70.480,242.114 70.536,244.651 70.604 M166.992 72.656 C 167.831 73.516,168.606 74.219,168.713 74.219 C 168.821 74.219,168.222 73.516,167.383 72.656 C 166.544 71.797,165.769 71.094,165.662 71.094 C 165.554 71.094,166.153 71.797,166.992 72.656 M182.031 77.148 C 182.760 77.900,183.444 78.516,183.552 78.516 C 183.659 78.516,183.151 77.900,182.422 77.148 C 181.693 76.396,181.009 75.781,180.901 75.781 C 180.794 75.781,181.302 76.396,182.031 77.148 M224.309 77.734 C 224.309 78.486,224.390 78.794,224.488 78.418 C 224.586 78.042,224.586 77.427,224.488 77.051 C 224.390 76.675,224.309 76.982,224.309 77.734 M231.752 82.227 C 231.755 83.301,231.831 83.694,231.921 83.100 C 232.011 82.506,232.008 81.627,231.916 81.147 C 231.823 80.667,231.749 81.152,231.752 82.227 M85.254 90.113 C 85.630 90.211,86.245 90.211,86.621 90.113 C 86.997 90.015,86.689 89.934,85.938 89.934 C 85.186 89.934,84.878 90.015,85.254 90.113 M224.330 93.555 C 224.333 94.629,224.409 95.022,224.499 94.428 C 224.589 93.834,224.586 92.956,224.494 92.475 C 224.401 91.995,224.328 92.480,224.330 93.555 M225.684 95.588 C 226.167 95.681,226.958 95.681,227.441 95.588 C 227.925 95.495,227.529 95.419,226.563 95.419 C 225.596 95.419,225.200 95.495,225.684 95.588 M71.279 114.941 L 68.555 117.773 71.387 115.050 C 74.017 112.520,74.397 112.109,74.111 112.109 C 74.051 112.109,72.777 113.384,71.279 114.941 M69.714 125.488 L 67.383 127.930 69.824 125.598 C 72.092 123.432,72.444 123.047,72.156 123.047 C 72.095 123.047,70.997 124.146,69.714 125.488 M61.097 133.984 C 61.097 137.529,61.156 138.979,61.228 137.207 C 61.301 135.435,61.301 132.534,61.228 130.762 C 61.156 128.989,61.097 130.439,61.097 133.984 M332.528 130.469 C 332.528 131.436,332.604 131.831,332.698 131.348 C 332.791 130.864,332.791 130.073,332.698 129.590 C 332.604 129.106,332.528 129.502,332.528 130.469 M301.752 187.695 C 301.752 215.410,301.799 226.806,301.855 213.019 C 301.912 199.232,301.912 176.556,301.855 162.628 C 301.799 148.700,301.752 159.980,301.752 187.695 M98.221 152.539 C 98.221 159.414,98.274 162.172,98.339 158.667 C 98.404 155.162,98.404 149.537,98.339 146.167 C 98.274 142.797,98.221 145.664,98.221 152.539 M339.843 155.390 L 340.039 169.727 340.141 155.689 C 340.198 147.968,340.110 141.516,339.946 141.352 C 339.783 141.188,339.736 147.505,339.843 155.390 M165.001 162.109 C 165.001 165.439,165.061 166.802,165.134 165.137 C 165.207 163.472,165.207 160.747,165.134 159.082 C 165.061 157.417,165.001 158.779,165.001 162.109 M98.186 168.555 C 98.184 170.488,98.250 171.329,98.332 170.422 C 98.414 169.515,98.415 167.933,98.334 166.906 C 98.254 165.879,98.187 166.621,98.186 168.555 M72.656 171.289 C 73.823 172.471,74.866 173.438,74.973 173.438 C 75.081 173.438,74.214 172.471,73.047 171.289 C 71.880 170.107,70.837 169.141,70.730 169.141 C 70.622 169.141,71.489 170.107,72.656 171.289 M334.552 175.879 L 333.008 177.539 334.668 175.995 C 336.212 174.559,336.508 174.219,336.212 174.219 C 336.148 174.219,335.401 174.966,334.552 175.879 M98.153 176.172 C 98.153 177.139,98.229 177.534,98.323 177.051 C 98.416 176.567,98.416 175.776,98.323 175.293 C 98.229 174.810,98.153 175.205,98.153 176.172 M87.238 179.102 C 87.239 180.605,87.310 181.173,87.394 180.362 C 87.479 179.552,87.478 178.321,87.391 177.628 C 87.305 176.935,87.236 177.598,87.238 179.102 M312.631 189.453 C 312.631 191.064,312.700 191.724,312.785 190.918 C 312.869 190.112,312.869 188.794,312.785 187.988 C 312.700 187.183,312.631 187.842,312.631 189.453 M316.309 192.854 C 316.792 192.947,317.583 192.947,318.066 192.854 C 318.550 192.761,318.154 192.685,317.188 192.685 C 316.221 192.685,315.825 192.761,316.309 192.854 M66.895 201.853 C 68.560 201.926,71.284 201.926,72.949 201.853 C 74.614 201.780,73.252 201.720,69.922 201.720 C 66.592 201.720,65.229 201.780,66.895 201.853 M41.909 203.711 C 41.912 204.785,41.987 205.178,42.077 204.584 C 42.167 203.991,42.165 203.112,42.072 202.631 C 41.979 202.151,41.906 202.637,41.909 203.711 M87.238 204.883 C 87.239 206.387,87.310 206.954,87.394 206.144 C 87.479 205.333,87.478 204.103,87.391 203.409 C 87.305 202.716,87.236 203.379,87.238 204.883 M69.043 208.105 C 72.319 208.170,77.681 208.170,80.957 208.105 C 84.233 208.039,81.553 207.986,75.000 207.986 C 68.447 207.986,65.767 208.039,69.043 208.105 M98.196 213.477 C 98.197 216.055,98.260 217.059,98.336 215.707 C 98.413 214.356,98.412 212.247,98.335 211.020 C 98.258 209.793,98.195 210.898,98.196 213.477 M316.094 218.259 C 317.963 218.331,321.127 218.331,323.125 218.260 C 325.123 218.189,323.594 218.131,319.727 218.130 C 315.859 218.130,314.225 218.188,316.094 218.259 M312.628 221.289 C 312.630 222.793,312.701 223.360,312.785 222.550 C 312.870 221.739,312.868 220.509,312.782 219.816 C 312.696 219.122,312.626 219.785,312.628 221.289 M98.178 226.563 C 98.178 228.174,98.247 228.833,98.331 228.027 C 98.416 227.222,98.416 225.903,98.331 225.098 C 98.247 224.292,98.178 224.951,98.178 226.563 M316.309 224.510 C 318.296 224.581,321.548 224.581,323.535 224.510 C 325.522 224.439,323.896 224.381,319.922 224.381 C 315.947 224.381,314.321 224.439,316.309 224.510 M98.145 231.836 C 98.150 232.695,98.230 233.001,98.323 232.515 C 98.417 232.029,98.413 231.326,98.315 230.952 C 98.217 230.579,98.141 230.977,98.145 231.836 M333.367 238.281 C 333.367 242.471,333.424 244.185,333.494 242.090 C 333.565 239.995,333.565 236.567,333.494 234.473 C 333.424 232.378,333.367 234.092,333.367 238.281 M339.627 242.969 C 339.627 249.521,339.680 252.202,339.745 248.926 C 339.811 245.649,339.811 240.288,339.745 237.012 C 339.680 233.735,339.627 236.416,339.627 242.969 M83.887 231.923 C 84.585 232.010,85.728 232.010,86.426 231.923 C 87.124 231.837,86.553 231.766,85.156 231.766 C 83.760 231.766,83.188 231.837,83.887 231.923 M69.318 236.816 L 67.773 238.477 69.434 236.932 C 70.978 235.496,71.273 235.156,70.978 235.156 C 70.914 235.156,70.167 235.903,69.318 236.816 M80.371 238.557 C 80.854 238.650,81.646 238.650,82.129 238.557 C 82.612 238.464,82.217 238.388,81.250 238.388 C 80.283 238.388,79.888 238.464,80.371 238.557 M61.718 257.696 C 61.611 263.969,61.658 268.968,61.823 268.803 C 61.987 268.638,62.075 263.505,62.018 257.396 L 61.913 246.289 61.718 257.696 M68.075 254.688 C 68.075 255.654,68.151 256.050,68.244 255.566 C 68.338 255.083,68.338 254.292,68.244 253.809 C 68.151 253.325,68.075 253.721,68.075 254.688 M298.416 267.090 L 297.070 268.555 298.535 267.209 C 299.341 266.468,300.000 265.809,300.000 265.744 C 300.000 265.445,299.669 265.726,298.416 267.090 M54.395 279.492 C 54.400 280.352,54.480 280.657,54.573 280.171 C 54.667 279.685,54.663 278.982,54.565 278.609 C 54.467 278.235,54.391 278.633,54.395 279.492 M322.060 282.520 L 319.336 285.352 322.168 282.628 C 324.798 280.098,325.178 279.688,324.892 279.688 C 324.832 279.688,323.558 280.962,322.060 282.520 M261.035 280.758 C 262.485 280.834,264.858 280.834,266.309 280.758 C 267.759 280.683,266.572 280.622,263.672 280.622 C 260.771 280.622,259.585 280.683,261.035 280.758 M331.036 282.129 L 329.492 283.789 331.152 282.245 C 332.696 280.809,332.992 280.469,332.696 280.469 C 332.633 280.469,331.886 281.216,331.036 282.129 M213.175 281.141 C 213.868 281.228,215.099 281.229,215.909 281.144 C 216.720 281.060,216.152 280.989,214.648 280.988 C 213.145 280.986,212.481 281.055,213.175 281.141 M211.502 292.969 C 211.502 299.521,211.555 302.202,211.620 298.926 C 211.686 295.649,211.686 290.288,211.620 287.012 C 211.555 283.735,211.502 286.416,211.502 292.969 M217.751 292.969 C 217.751 299.307,217.805 301.899,217.870 298.730 C 217.936 295.562,217.936 290.376,217.870 287.207 C 217.805 284.038,217.751 286.631,217.751 292.969 M312.671 291.895 L 311.523 293.164 312.793 292.017 C 313.491 291.386,314.063 290.814,314.063 290.747 C 314.063 290.445,313.740 290.711,312.671 291.895 M220.687 307.520 C 221.645 308.540,222.480 309.375,222.542 309.375 C 222.836 309.375,222.525 309.024,220.801 307.406 L 218.945 305.664 220.687 307.520 M217.578 313.867 C 218.962 315.264,220.183 316.406,220.290 316.406 C 220.397 316.406,219.353 315.264,217.969 313.867 C 216.585 312.471,215.364 311.328,215.257 311.328 C 215.150 311.328,216.194 312.471,217.578 313.867 M233.691 311.621 C 238.364 311.683,246.011 311.683,250.684 311.621 C 255.356 311.558,251.533 311.507,242.188 311.507 C 232.842 311.507,229.019 311.558,233.691 311.621 M232.546 317.871 C 237.449 317.933,245.359 317.933,250.124 317.871 C 254.890 317.809,250.879 317.758,241.211 317.758 C 231.543 317.758,227.644 317.809,232.546 317.871 " stroke="none" fill="#c7e5f2" fill-rule="evenodd"></path></g></svg>